<?xml version="1.0" encoding="UTF-8" standalone="no"?>
<!-- Generator: Adobe Illustrator 12.0.0, SVG Export Plug-In . SVG Version: 6.00 Build 51448)  -->

<svg
   xmlns:dc="http://purl.org/dc/elements/1.1/"
   xmlns:cc="http://creativecommons.org/ns#"
   xmlns:rdf="http://www.w3.org/1999/02/22-rdf-syntax-ns#"
   xmlns:svg="http://www.w3.org/2000/svg"
   xmlns="http://www.w3.org/2000/svg"
   xmlns:xlink="http://www.w3.org/1999/xlink"
   xmlns:sodipodi="http://sodipodi.sourceforge.net/DTD/sodipodi-0.dtd"
   xmlns:inkscape="http://www.inkscape.org/namespaces/inkscape"
   version="1.1"
   id="Layer_1"
   width="575.97375"
   height="294.242"
   viewBox="0 0 575.97376 294.24201"
   overflow="visible"
   enable-background="new 0 0 612 792"
   xml:space="preserve"
   inkscape:version="0.91 r13725"
   sodipodi:docname="lorry.svg"
   style="overflow:visible"><metadata
     id="metadata3363"><rdf:RDF><cc:Work
         rdf:about=""><dc:format>image/svg+xml</dc:format><dc:type
           rdf:resource="http://purl.org/dc/dcmitype/StillImage" /><dc:title>Lorry</dc:title></cc:Work></rdf:RDF></metadata><defs
     id="defs3361" /><sodipodi:namedview
     pagecolor="#ffffff"
     bordercolor="#666666"
     borderopacity="1"
     objecttolerance="10"
     gridtolerance="10"
     guidetolerance="10"
     inkscape:pageopacity="0"
     inkscape:pageshadow="2"
     inkscape:window-width="1920"
     inkscape:window-height="1027"
     id="namedview3359"
     showgrid="false"
     inkscape:zoom="1.4142136"
     inkscape:cx="181.49091"
     inkscape:cy="157.95489"
     inkscape:window-x="-8"
     inkscape:window-y="22"
     inkscape:window-maximized="1"
     inkscape:current-layer="Layer_1"
     fit-margin-top="0"
     fit-margin-left="0"
     fit-margin-right="0"
     fit-margin-bottom="0" /><title
     id="title3337">Lorry</title><title
     id="title3339">Layer 1</title><path
     id="path5439"
     d="m 161.6968,46.069003 0,153.196997 241.848,0.197 c -14.193,11.596 -23.054,27.577 -22.938,48.555 l -240.078,-0.144 C 138.2288,166.493 22.769803,166.77 20.260803,247.402 2.9198027,247.273 0.51380274,243.335 0.34680274,227.361 l 0,-61.09 c -0.218,-27.299 -3.62700004,-9.278 16.58200026,-61.048 20.794,-55.186997 15.062,-50.085997 33.869,-51.509997 l 110.898997,-7.644 0,0 z m -48.036,90.327997 0.957,-65.087997 -61.736997,3.829 c -11.255,0.754 -11.349,0.824 -15.314,13.879 l -15.793,42.114997 c -5.306,12.918 -4.461,16.724 10.05,14.836 l 81.836997,-9.571 z m 461.995,63.182 0.117,34.418 -39.867,14.112 -35.004,-0.022 c 0.143,-19.958 -8.15,-36.743 -22.856,-48.534 l 97.61,0.026 z"
     inkscape:connector-curvature="0"
     style="fill:#007fff" /><rect
     id="rect5441"
     x="186.40579"
     y="0"
     width="389.56799"
     height="186.17"
     style="fill:#007fff" /><circle
     id="circle5443"
     cx="80.376808"
     cy="246.728"
     r="47.514" /><circle
     id="circle5445"
     cx="440.7438"
     cy="246.728"
     r="47.514" /><g
     id="g3345"
     transform="translate(-13.979197,-251.44697)"><defs
       id="defs3347"><rect
         id="XMLID_1_"
         x="262.521"
         y="438.83301"
         width="119.333"
         height="106.667" /></defs><clipPath
       id="XMLID_3_"><use
         xlink:href="#XMLID_1_"
         id="use3351"
         x="0"
         y="0"
         width="100%"
         height="100%" /></clipPath><path
       clip-path="url(#XMLID_3_)"
       d="m 322.453,439.719 c 31.928,0 57.811,25.443 57.811,56.828 0,20.842 -11.414,39.063 -28.432,48.953 -8.609,5.004 -18.653,7.875 -29.379,7.875 -10.724,0 -20.766,-2.87 -29.374,-7.872 -17.021,-9.89 -28.437,-28.112 -28.437,-48.956 10e-4,-31.385 25.883,-56.828 57.811,-56.828 z"
       id="path3353"
       inkscape:connector-curvature="0"
       style="fill:#87ceeb" /></g><ellipse
     id="svg_1"
     cx="79.143806"
     cy="246.728"
     rx="14.81"
     ry="13.576"
     style="fill:#7f7f7f" /><ellipse
     id="svg_3"
     cx="440.12582"
     cy="246.845"
     rx="14.81"
     ry="13.575"
     style="fill:#7f7f7f" /><circle
     id="svg_4"
     cx="308.97382"
     cy="246.60001"
     r="47.514" /><ellipse
     id="svg_5"
     cx="308.35681"
     cy="245.46701"
     rx="14.81"
     ry="13.576"
     style="fill:#7f7f7f" /></svg>